<svg xmlns="http://www.w3.org/2000/svg" viewBox="0 0 500 500"><g id="freepik--Floor--inject-245"><path d="M49.36,477.85c128.54-.61,272.74-.62,401.28,0-128.54.61-272.74.61-401.28,0Z" style="fill:#263238"></path></g><g id="freepik--Arrows--inject-245"><polygon points="269.11 329.75 231 329.74 231 314.07 269.12 314.09 269.11 329.75" style="fill:#FFC727"></polygon><rect x="231.01" y="289.37" width="38.11" height="2.98" style="fill:#FFC727"></rect><polygon points="213.89 382.3 230.94 382.31 230.99 336.68 269.11 336.68 269.06 382.3 286.11 382.31 249.97 438.53 213.89 382.3" style="fill:#FFC727"></polygon><polygon points="269.12 307.89 231.01 307.88 231.01 297.73 269.11 297.74 269.12 307.89" style="fill:#FFC727"></polygon><rect x="374.63" y="239.44" width="26.76" height="11" style="fill:#FFC727"></rect><rect x="374.63" y="222.09" width="26.76" height="2.1" style="fill:#FFC727"></rect><polygon points="362.61 283.53 374.59 283.54 374.62 255.31 401.39 255.31 401.35 283.53 413.33 283.54 387.95 323.02 362.61 283.53" style="fill:#FFC727"></polygon><rect x="374.63" y="227.97" width="26.76" height="7.12" style="fill:#FFC727"></rect><rect x="98.69" y="88.3" width="26.76" height="11" style="fill:#FFC727"></rect><rect x="98.69" y="70.96" width="26.76" height="2.1" style="fill:#FFC727"></rect><polygon points="86.67 132.39 98.65 132.4 98.68 104.17 125.45 104.17 125.41 132.39 137.39 132.4 112.01 171.88 86.67 132.39" style="fill:#FFC727"></polygon><rect x="98.69" y="76.83" width="26.76" height="7.12" style="fill:#FFC727"></rect></g><g id="freepik--World--inject-245"><path d="M367.45,371.86l-8.68-28.7a4,4,0,0,0-3.78-2.7H258.81a14,14,0,0,1-14-14V292.72h10v33.75a4,4,0,0,0,4,4H355a14,14,0,0,1,13.33,9.72L377,369Z" style="fill:#263238"></path><rect x="230.88" y="281.08" width="38.24" height="11.28" style="fill:#455a64"></rect><rect x="235.07" y="292.36" width="29.6" height="7.64" style="fill:#455a64"></rect><polygon points="264.68 294.27 235.07 295.17 235.07 292.36 264.68 292.36 264.68 294.27" style="fill:#37474f"></polygon><path d="M371.39,186.28c-.1.64-.22,1.27-.35,1.9a122.67,122.67,0,0,1-21.3,49v0A123.3,123.3,0,0,1,128.79,187.3a1.13,1.13,0,0,1,0-.18.71.71,0,0,1,0-.14c0-4.06,13.59-3.22,35.56-4.67,22-1.1,52.32-4.48,85.84-8.73s63.88-4.64,85.85-.89C356.56,175.88,369.78,182.68,371.39,186.28Z" style="fill:#FFC727"></path><path d="M371.39,186.28c-.1.64-.22,1.27-.35,1.9a122.67,122.67,0,0,1-21.3,49v0A123.3,123.3,0,0,1,128.79,187.3a1.13,1.13,0,0,1,0-.18.71.71,0,0,1,0-.14c0-4.06,13.59-3.22,35.56-4.67,22-1.1,52.32-4.48,85.84-8.73s63.88-4.64,85.85-.89C356.56,175.88,369.78,182.68,371.39,186.28Z" style="opacity:0.6000000000000001"></path><path d="M371.56,187a1.65,1.65,0,0,1-.52,1.2c-2.69,2.69-15.58,2.18-35,3.47-22,1.09-52.32,4.47-85.85,8.72s-63.87,4.64-85.84.88C143,198,129.6,190.79,128.79,187.3a1.13,1.13,0,0,1,0-.18.71.71,0,0,1,0-.14c0-4.06,13.59-3.22,35.56-4.67,22-1.1,52.32-4.48,85.84-8.73s63.88-4.64,85.85-.89c20.56,3.19,33.78,10,35.39,13.59A1.75,1.75,0,0,1,371.56,187Z" style="fill:#FFC727"></path><path d="M371.56,187a1.65,1.65,0,0,1-.52,1.2c-2.69,2.69-15.58,2.18-35,3.47-22,1.09-52.32,4.47-85.85,8.72s-63.87,4.64-85.84.88C143,198,129.6,190.79,128.79,187.3a1.13,1.13,0,0,1,0-.18.71.71,0,0,1,0-.14c0-4.06,13.59-3.22,35.56-4.67,22-1.1,52.32-4.48,85.84-8.73s63.88-4.64,85.85-.89c20.56,3.19,33.78,10,35.39,13.59A1.75,1.75,0,0,1,371.56,187Z" style="opacity:0.5"></path><path d="M228.62,197.21a237.29,237.29,0,0,1-41.71,1.37c-9.28-.46-18.59-.92-27.73-2.73-2.4-.32-23.2-5.13-16.5-9a25,25,0,0,1,7-1.21c4.64-.34,9.27-.45,13.91-.59-4.34.72-9.32.79-13.84,1.37a25.06,25.06,0,0,0-6.65,1.3c-3.64,1.63,8.37,5.29,9.57,5.59a149.58,149.58,0,0,0,34.26,5c13.86.33,28-.76,41.7-1Z" style="opacity:0.2"></path><path d="M281.82,191.14a108.28,108.28,0,0,1-16.42,2.09c-9,1.15-18.42,3.18-27.42,3,9-1.9,18.23-2.36,27.38-3.33,5.38-.85,11.14-2,16.46-1.77Z" style="opacity:0.2"></path><path d="M345.52,176.73c2.14.36,16.72,3.81,12.61,7.27-1.86,1.14-4.08,1.17-6.16,1.45-3.66.32-7.31.36-11,.57-10.94.52-21.81,2.11-32.72,3-7.21.57-14.8,1.29-21.86,1.54l5.42-.8q19-2.33,38.2-3.45c7.29-.32,14.61-.73,21.83-1.64,2-.28,4.06-.42,5.75-1.33,1.4-.81-1.26-2.16-2-2.59-3.09-1.76-7-2.69-10.13-4Z" style="opacity:0.2"></path><path d="M173.48,184.32c20.75-2,41.46-4.24,62.18-6.45,34.3-4.39,69.48-9.28,103.8-2.47l0,.09c-27.49-4.23-55.47-2.26-83,.3-27.56,2.84-55.35,7.8-82.92,8.53Z" style="opacity:0.2"></path><path d="M287,176.6a179.4,179.4,0,0,1,29-.52c6.43.29,12.89.3,19.3,1.11,3.58.57,7.83.79,11.07,2.65,2.18,2.5-6.31,2.43-7.53,2.62-3.16.07-6.68.45-9.66.2l9.6-1c2.26-.32,4.93-.31,7-1.25a.25.25,0,0,0,0,.18c-3-1.49-7.08-1.88-10.56-2.49q-4.75-.66-9.56-1.13c-12.76-1.34-25.94.18-38.56-.39Z" style="opacity:0.2"></path><path d="M235.28,180.93a101.15,101.15,0,0,1,16.49-1.74c9.11-.81,18.57-2.5,27.57-2.07-9.11,1.64-18.33,1.77-27.54,2.39-5.41.67-11.2,1.74-16.52,1.42Z" style="opacity:0.2"></path><path d="M154.11,188.71c-.39-1.13,3.24-1.48,4-1.65,7.48-1.08,15-1.12,22.55-1.5,15-1.34,29.93-3.32,45-3.69v.1c-17.9,2.62-36,2.93-54,4.77-5.24.46-10.51.47-15.73,1.08a4.71,4.71,0,0,0-1.58.45.32.32,0,0,0-.19.38l-.08.06Z" style="opacity:0.2"></path><path d="M323.88,183.1c-24.68,2.33-59,5-83.26,7.68-17.34,1.73-34.78,2.95-52.22,2.6-10.44-.38-21-.77-31.17-3.35,3.23.46,6.91,1.18,10.34,1.44,24.29,2.1,48.72.47,73-1.23,27.71-2.21,55.66-6.56,83.31-7.14Z" style="opacity:0.2"></path><path d="M250,288.46A123.78,123.78,0,0,1,250,40.9c3.38,0,6.78.14,10.09.41A123.78,123.78,0,0,1,250,288.46ZM250,41.9a121.8,121.8,0,0,0-72.7,23.83,122.79,122.79,0,1,0,172,171.15A122.77,122.77,0,0,0,260,42.31C256.72,42,253.36,41.9,250,41.9Z" style="fill:#263238"></path><path d="M276.62,222.87c-1.55,4.15,1,4.32,1.21,6s0,5-5,10-13.29,4-15,6-4.66,10.88-8.8,13.81-4.84,1.21-10.71,2.42S227.93,270,226.2,273.63s.35,9.67-3.79,9.85-6-8.81-9.85-13.64-5-9.16-6.21-14.85.69-17.62,0-22.28-13.12-13-17.61-18.64S178,197,178.38,193.17a15.38,15.38,0,0,1,5.18-9.49c2.07-1.56,1.21-2.42,1.55-3.8s2.07-1.73,2.42-3.45-1-6.91-2.76-7.77-2.94,2.07-4,1.55-4.14-4.14-5.35-4.49-.86,2.25-2.59-1-2.59-11.56-4-13-2.42,2.42-5.7,0-4.66-7.07-6-7.76-3.28.17-4.7-2.59,1.25-7.77,0-7.26-3.93,4.49-4.62.69,3.45-16.57,2.76-23.48a27.63,27.63,0,0,1,6.56-20s.69-3.79,1.38-6.21S174.06,73,175.79,70.24A13.34,13.34,0,0,0,177,65.33,122.69,122.69,0,0,1,250,41.4q5.07,0,10.05.41c.11.16.22.31.34.46,1.5,1.9,3.11,3.11,7.48,4.72s5.41,3.68,4.49,5.41-2.41,2.07-4.14,2.19-3.34-.81-5.18.34-3.69,7.37-6.1,7.71-6.68-5.52-7.6-7.25,2.07-5.41.66-7.14-3.88-1.38-7.8-1.72-13,1.15-12.66,2.64,13.35-.23,13.7,2.77S233.69,60,232,59.53s-4-3.45-6.56-3.79-4.61,1.72-6.2,1.95-3.47-1.72-5.89-1.26-3,2.53-4.26,3.34-4.26.8-4.6,2.64,3.8,2.88,4.83,4-1.26,5.07-.23,5.87,7.48-4.83,9.1-6.21,3-7.37,6.44-7.26,4.61,6,5.76,6.56,3.68-1.38,7.48-.57,6.44,9.09,7.14,11.62,2.3,5.07.92,6.11-7.6-.69-8.4-2.31,4.14-4,3.79-4.6-3.22-1.38-4.72-.48-2.18,2.78-3.79,3.24-5.88-4.37-7-3,1.15,5.76,2.3,6.79,5.42,1.61,5.76,2.76-2.88,3.68-6.79,3.46-7.14-3.23-8.63-2-.7,4.6-1.73,5.76-6.68.34-9.44,3.33-4,7.48-6.79,10-4-.69-7.71,2.88-4.26,11.51-4.38,14.27,0,5-.92,4.6-2.19-2.76-2.53-4.26.81-4,.81-4.95-5.3-5.64-8.41-6.1-5.87,2.07-8.17,3.92-6.45,1.49-7.94,3-2.65,14.73-1.5,17.84,2.65,3.11,6.33,1.5,1.61-4.72,3.8-4a5.14,5.14,0,0,1,3.34,4.83c0,1.85-4.37,6.22-3.8,7.49s4.38-.24,6.22.34,2.76,1.73,2.18,6.45-.23,8.4,2.54,10,4.31-2.24,5.52-1.72,2.94,3.28,4.66,3.1.87-1.72,4.15-2.76,2.07-1.72,2.76-3.8,2.76-3.8,5-2.76.69,2.59.86,4.32,4.14,1.9,7.25,2.93,4.84,0,11,2.07,6.56,8.29,9.15,9.33,11.23-.69,17.44,3.8,4.49,12.77,7.6,15.19,14.68,5.7,19.16,6.56,5.18-2.24,8.81-1.38,5.7,1.9,6.91,6.91C291.67,209.49,278.17,218.73,276.62,222.87Z" style="fill:#FFC727"></path><path d="M183.84,134.58c.12,1,3,1.39,6.45,3.34s4.72,7.71,6.56,7.6,1.27-2.76,2-3.45,1.84-2.19,0-3.69-3.64-4.72-7-5.18-3.94-1.84-5.43-1.72A2.6,2.6,0,0,0,183.84,134.58Z" style="fill:#FFC727"></path><path d="M202.84,144.25c-.52,1.41,0,2.42,3.68,3.34s7.14-.92,6-1.67-2.88-.4-2.19-1.67.45-3.1-2.54-2.76S203.3,143,202.84,144.25Z" style="fill:#FFC727"></path><path d="M215.73,144.65c-1.26.18-2,2.37-.69,3.75s1.26,1.15,2.76,0,3.8-1.73,3.22-2.88S217,144.46,215.73,144.65Z" style="fill:#FFC727"></path><path d="M225.74,149.35c.57-1.73,3.46,0,4.72,1.81s.69,4.49,0,6.45-1.15,4.25-2.76,3.33.12-3.68-.11-5.29S225.28,150.76,225.74,149.35Z" style="fill:#FFC727"></path><path d="M275.35,53.32c-.6,1.44,2.19,2,3.8,2.88s2.88,1.49,3.8,0-.34-3.23-1.61-3.57S275.93,51.94,275.35,53.32Z" style="fill:#FFC727"></path><path d="M297.11,66.79c1.06,1.12,2.88.92,4.14,2.53s.81,4.37,2.42,5.18,2.76,0,2.88-1.15-2.3-4-2.07-4.61,3.33.81,4,2.53-.7,4.15.92,4.61,1.26-1.61,1.95-2.07,2.19-.23,2.08-1.61A10.36,10.36,0,0,0,310,66.79c-1.49-1-2.65-2.19-5.18-2.77s-4.95-.11-6.21.92S296.46,66.1,297.11,66.79Z" style="fill:#FFC727"></path><path d="M346.91,88.48a2.08,2.08,0,0,1-.65,1.21c-2.42,1.73-5.3-4.26-8.63-5.41s-4.84-5.41-5.53-4.49-.46,2.19-1.49,3.69-2.54,1.15-3.23,4,3.23,8.17,2.31,9.9-2.08,1.15-3.92,1-1.49,1.5-3.91.81-.35-3.69-4.15-7.26-5.06-4.25-4.25-5.87-.35-3.91,1.38-4.14,3.11,2.3,4.26,3,2.64-1.38,2.76-3.22-4-4.37-5.53-5.8-1.61-6.63-1-7.67,2.3-.69,2.76-3.22c.27-1.49-2.09-4-4.08-5.77A123.72,123.72,0,0,1,346.91,88.48Z" style="fill:#FFC727"></path><path d="M364.1,191.68c.35-3.69-1.49-3.92.35-10.71s-2-14-3.34-15.54-4.37-1-6.79.46-.69,2.65-2.3,3.23-3.23-.35-4.72-.23-2.88,3.91-6.1,3.8-5.3-4.72-7.71-8-7.37-5.35-9-9.38,1.49-10.24.8-15-3.8-3.69-4.37-6.33.46-1.38,1.26-3.92-.92-3.91.69-8.28,4.49-6.57,3.8-8.52-2.87-5.18-3-7.48,2.19-2.19,6.56-5.41,5.53-3,8.86-1.84a48.46,48.46,0,0,0,7.37,2.07c2,.34,4.61,5.41,5.41,5.18s.92-1.73,1.27-3.92a4.8,4.8,0,0,1,1.43-2.47,123.35,123.35,0,0,1-4.86,137.74C361.48,219.23,363.76,195.36,364.1,191.68Z" style="fill:#FFC727"></path><g style="opacity:0.1"><path d="M276.62,222.87c-1.55,4.15,1,4.32,1.21,6s0,5-5,10-13.29,4-15,6-4.66,10.88-8.8,13.81-4.84,1.21-10.71,2.42S227.93,270,226.2,273.63s.35,9.67-3.79,9.85-6-8.81-9.85-13.64-5-9.16-6.21-14.85.69-17.62,0-22.28-13.12-13-17.61-18.64S178,197,178.38,193.17a15.38,15.38,0,0,1,5.18-9.49c2.07-1.56,1.21-2.42,1.55-3.8s2.07-1.73,2.42-3.45-1-6.91-2.76-7.77-2.94,2.07-4,1.55-4.14-4.14-5.35-4.49-.86,2.25-2.59-1-2.59-11.56-4-13-2.42,2.42-5.7,0-4.66-7.07-6-7.76-3.28.17-4.7-2.59,1.25-7.77,0-7.26-3.93,4.49-4.62.69,3.45-16.57,2.76-23.48a27.63,27.63,0,0,1,6.56-20s.69-3.79,1.38-6.21S174.06,73,175.79,70.24A13.34,13.34,0,0,0,177,65.33,122.69,122.69,0,0,1,250,41.4q5.07,0,10.05.41c.11.16.22.31.34.46,1.5,1.9,3.11,3.11,7.48,4.72s5.41,3.68,4.49,5.41-2.41,2.07-4.14,2.19-3.34-.81-5.18.34-3.69,7.37-6.1,7.71-6.68-5.52-7.6-7.25,2.07-5.41.66-7.14-3.88-1.38-7.8-1.72-13,1.15-12.66,2.64,13.35-.23,13.7,2.77S233.69,60,232,59.53s-4-3.45-6.56-3.79-4.61,1.72-6.2,1.95-3.47-1.72-5.89-1.26-3,2.53-4.26,3.34-4.26.8-4.6,2.64,3.8,2.88,4.83,4-1.26,5.07-.23,5.87,7.48-4.83,9.1-6.21,3-7.37,6.44-7.26,4.61,6,5.76,6.56,3.68-1.38,7.48-.57,6.44,9.09,7.14,11.62,2.3,5.07.92,6.11-7.6-.69-8.4-2.31,4.14-4,3.79-4.6-3.22-1.38-4.72-.48-2.18,2.78-3.79,3.24-5.88-4.37-7-3,1.15,5.76,2.3,6.79,5.42,1.61,5.76,2.76-2.88,3.68-6.79,3.46-7.14-3.23-8.63-2-.7,4.6-1.73,5.76-6.68.34-9.44,3.33-4,7.48-6.79,10-4-.69-7.71,2.88-4.26,11.51-4.38,14.27,0,5-.92,4.6-2.19-2.76-2.53-4.26.81-4,.81-4.95-5.3-5.64-8.41-6.1-5.87,2.07-8.17,3.92-6.45,1.49-7.94,3-2.65,14.73-1.5,17.84,2.65,3.11,6.33,1.5,1.61-4.72,3.8-4a5.14,5.14,0,0,1,3.34,4.83c0,1.85-4.37,6.22-3.8,7.49s4.38-.24,6.22.34,2.76,1.73,2.18,6.45-.23,8.4,2.54,10,4.31-2.24,5.52-1.72,2.94,3.28,4.66,3.1.87-1.72,4.15-2.76,2.07-1.72,2.76-3.8,2.76-3.8,5-2.76.69,2.59.86,4.32,4.14,1.9,7.25,2.93,4.84,0,11,2.07,6.56,8.29,9.15,9.33,11.23-.69,17.44,3.8,4.49,12.77,7.6,15.19,14.68,5.7,19.16,6.56,5.18-2.24,8.81-1.38,5.7,1.9,6.91,6.91C291.67,209.49,278.17,218.73,276.62,222.87Z"></path><path d="M183.84,134.58c.12,1,3,1.39,6.45,3.34s4.72,7.71,6.56,7.6,1.27-2.76,2-3.45,1.84-2.19,0-3.69-3.64-4.72-7-5.18-3.94-1.84-5.43-1.72A2.6,2.6,0,0,0,183.84,134.58Z"></path><path d="M202.84,144.25c-.52,1.41,0,2.42,3.68,3.34s7.14-.92,6-1.67-2.88-.4-2.19-1.67.45-3.1-2.54-2.76S203.3,143,202.84,144.25Z"></path><path d="M215.73,144.65c-1.26.18-2,2.37-.69,3.75s1.26,1.15,2.76,0,3.8-1.73,3.22-2.88S217,144.46,215.73,144.65Z"></path><path d="M225.74,149.35c.57-1.73,3.46,0,4.72,1.81s.69,4.49,0,6.45-1.15,4.25-2.76,3.33.12-3.68-.11-5.29S225.28,150.76,225.74,149.35Z"></path><path d="M275.35,53.32c-.6,1.44,2.19,2,3.8,2.88s2.88,1.49,3.8,0-.34-3.23-1.61-3.57S275.93,51.94,275.35,53.32Z"></path><path d="M297.11,66.79c1.06,1.12,2.88.92,4.14,2.53s.81,4.37,2.42,5.18,2.76,0,2.88-1.15-2.3-4-2.07-4.61,3.33.81,4,2.53-.7,4.15.92,4.61,1.26-1.61,1.95-2.07,2.19-.23,2.08-1.61A10.36,10.36,0,0,0,310,66.79c-1.49-1-2.65-2.19-5.18-2.77s-4.95-.11-6.21.92S296.46,66.1,297.11,66.79Z"></path><path d="M346.91,88.48a2.08,2.08,0,0,1-.65,1.21c-2.42,1.73-5.3-4.26-8.63-5.41s-4.84-5.41-5.53-4.49-.46,2.19-1.49,3.69-2.54,1.15-3.23,4,3.23,8.17,2.31,9.9-2.08,1.15-3.92,1-1.49,1.5-3.91.81-.35-3.69-4.15-7.26-5.06-4.25-4.25-5.87-.35-3.91,1.38-4.14,3.11,2.3,4.26,3,2.64-1.38,2.76-3.22-4-4.37-5.53-5.8-1.61-6.63-1-7.67,2.3-.69,2.76-3.22c.27-1.49-2.09-4-4.08-5.77A123.72,123.72,0,0,1,346.91,88.48Z"></path><path d="M364.1,191.68c.35-3.69-1.49-3.92.35-10.71s-2-14-3.34-15.54-4.37-1-6.79.46-.69,2.65-2.3,3.23-3.23-.35-4.72-.23-2.88,3.91-6.1,3.8-5.3-4.72-7.71-8-7.37-5.35-9-9.38,1.49-10.24.8-15-3.8-3.69-4.37-6.33.46-1.38,1.26-3.92-.92-3.91.69-8.28,4.49-6.57,3.8-8.52-2.87-5.18-3-7.48,2.19-2.19,6.56-5.41,5.53-3,8.86-1.84a48.46,48.46,0,0,0,7.37,2.07c2,.34,4.61,5.41,5.41,5.18s.92-1.73,1.27-3.92a4.8,4.8,0,0,1,1.43-2.47,123.35,123.35,0,0,1-4.86,137.74C361.48,219.23,363.76,195.36,364.1,191.68Z"></path></g><path d="M373.28,164.68a122.68,122.68,0,0,1-23.54,72.47s0,0,0,0a123.86,123.86,0,0,1-44.28,37.64A124.65,124.65,0,0,0,344.33,240a0,0,0,0,0,0,0A123.81,123.81,0,0,0,341.5,90.42a124.77,124.77,0,0,0-33.11-29.36,123.32,123.32,0,0,0-54.26-17.58q-5-.4-10.1-.41a124.33,124.33,0,0,0-29.77,3.6A123.25,123.25,0,0,1,250,41.4q5.07,0,10.05.41A122.53,122.53,0,0,1,314,59.29a123.87,123.87,0,0,1,32.93,29.19,120.75,120.75,0,0,1,7.69,10.94A122.66,122.66,0,0,1,373.28,164.68Z" style="opacity:0.1"></path><g style="opacity:0.5"><path d="M211.59,56.43c-14,11.46-27.18,23.9-37.05,39.06-14.11,21.37-20.22,46.81-20.39,72.24-.11,14,3,27.63,7.83,41,7,18.37,16.64,35.82,31.29,49.72-20.18-7.11-35.45-24.77-45.72-43.09-7.86-14.36-12.91-30.9-13.21-47.58-.38-21.82,4.3-44.09,15.32-63.15C163,81.37,186,63.73,211.59,56.43Z" style="fill:#fff"></path><path d="M323.46,252.86c16.12-17.59,27.69-50,32.62-73.29,3.68,23.8-10.57,61.79-32.62,73.29Z" style="fill:#fff"></path></g></g><g id="freepik--petrol-can--inject-245"><path d="M368.08,380.15l16.1-4.81h60.2a6.26,6.26,0,0,1,6.26,6.26v90a6.27,6.27,0,0,1-6.26,6.27H369.87a6.27,6.27,0,0,1-6.26-6.27V386.16A6.27,6.27,0,0,1,368.08,380.15Z" style="fill:#FFC727"></path><path d="M384.19,375.34h12l6.08-10.56a1.75,1.75,0,0,1,1.53-.88h30a1.77,1.77,0,0,1,1.71,2.24l-2.52,9.2,17.59,8.3V359.93a4.8,4.8,0,0,0-4.8-4.8H398.61a4.81,4.81,0,0,0-4.16,2.4Z" style="fill:#FFC727"></path><rect x="362.12" y="364.48" width="18.76" height="6.7" transform="translate(832.73 613.92) rotate(163.37)" style="fill:#FFC727"></rect><rect x="362.12" y="364.48" width="18.76" height="6.7" transform="translate(832.73 613.92) rotate(163.37)" style="opacity:0.30000000000000004"></rect><rect x="366.32" y="370.86" width="14.52" height="7.49" transform="translate(838.77 626.59) rotate(163.37)" style="fill:#FFC727"></rect><rect x="366.32" y="370.86" width="14.52" height="7.49" transform="translate(838.77 626.59) rotate(163.37)" style="opacity:0.30000000000000004"></rect><polygon points="366.09 374.89 380.26 371.57 379.47 368.94 365.56 373.09 366.09 374.89" style="opacity:0.1"></polygon><g style="opacity:0.1"><path d="M434.69,452a1.49,1.49,0,0,1,0,2.12,1.5,1.5,0,0,1-2.12,0l-11-11H392.73l-11,11a1.53,1.53,0,0,1-1.06.44,1.5,1.5,0,0,1-1.06-2.56l11.1-11.1V412.29l-11.1-11.1a1.5,1.5,0,0,1,2.12-2.12l11.13,11.13h28.61l11.13-11.13a1.5,1.5,0,0,1,2.12,2.12l-11.12,11.12v28.57Z"></path></g></g><g id="freepik--Character--inject-245"><path d="M139.32,170.45s-6.65,46.28-6.21,50.68S139,268.19,139,268.19s12.18-2.62,15.7-4.73c2.53-1.51,11.48-9.23,11.48-9.23s-15.24-29.75-16.47-35.78-2.08-35.3-3.52-41.19a12,12,0,0,0-7-7.91" style="fill:#37474f"></path><path d="M162.07,246.09V257.7l-.35.29V245.38C161.84,245.62,162,245.86,162.07,246.09Zm-9.94-21v39.56a16,16,0,0,0,2.56-1.14c.42-.25,1-.68,1.74-1.22V234.48c-.45-.95-.9-1.9-1.33-2.83,0-.11-.11-.24-.17-.35-.86-1.86-1.67-3.65-2.39-5.3Zm-5.65-46.12v87.43a3.58,3.58,0,0,1,.35-.09v-86h-.17Q146.57,179.55,146.48,178.93Zm-9.6,9v63.63l.09.64c.18,1.48.36,2.92.54,4.29.24,1.94.47,3.73.67,5.3,0,.12,0,.23,0,.35.31,2.45.54,4.32.67,5.3.06.49.1.75.1.75l2.2-.49V170.34h-.12a10.73,10.73,0,0,0-1.89-1l.12,1,0,.12s0,.07,0,.22c-.08.62-.36,2.55-.75,5.3-.17,1.27-.38,2.72-.59,4.3s-.48,3.42-.74,5.29c0,.12,0,.24,0,.36C137.07,186.58,137,187.25,136.88,187.92Zm2,79.51c.06.49.1.75.1.75l2.2-.49,1.1-.26Zm-.71-5.65c0,.12,0,.23,0,.35h18.36l.46-.35ZM137,252.19c.18,1.48.36,2.92.54,4.29h26c1.54-1.3,2.64-2.25,2.64-2.25s-.39-.75-1-2Zm-.72-5.65c0,.11,0,.23,0,.34h26.18c-.06-.11-.11-.22-.17-.34Zm-1.21-9.6c.18,1.41.36,2.85.54,4.31h24.1c-.68-1.4-1.38-2.85-2.07-4.31Zm-.71-5.64c0,.11,0,.23,0,.35H155.1c0-.11-.11-.24-.17-.35Zm-1.15-9.59c.09.88.26,2.38.5,4.29h18.86l-.41-.95c-.53-1.22-1-2.35-1.36-3.34Zm.19-5.31h16c0-.11,0-.22-.05-.34H133.4C133.38,216.18,133.38,216.29,133.37,216.4Zm.59-5.64h14.92c-.1-1.34-.21-2.78-.3-4.3H134.47C134.29,208,134.12,209.41,134,210.76Zm1.17-9.6h13.1c0-.12,0-.23,0-.34h-13C135.16,200.94,135.15,201.05,135.13,201.16Zm.74-5.64h12c-.09-1.46-.18-2.9-.28-4.3H136.44C136.25,192.64,136.06,194.08,135.87,195.52Zm1.29-9.59h10.06c0-.12,0-.24,0-.36h-10C137.19,185.69,137.17,185.81,137.16,185.93Zm.78-5.65h8.72q-.09-.74-.18-1.35c-.1-.68-.2-1.24-.31-1.67a10.06,10.06,0,0,0-.4-1.28h-7.24C138.36,177.25,138.15,178.7,137.94,180.28Zm1.34-9.6h2.3l-.39-.27v-.07H139.3l0,.12S139.31,170.53,139.28,170.68Z" style="fill:#030402;opacity:0.1"></path><path d="M82.37,386.17s-20.72,36.64-20.74,36.66c-3.33,7.39-6.11,13.93-7.24,17.45a.07.07,0,0,0,0,.05,5.66,5.66,0,0,0-.49,2.53.64.64,0,0,0,0,.07c1.53,2.48,59.81,30.8,62.17,31.1s3.42-6.41,2-9.31S99.26,441,99.26,441L119.6,404.2Z" style="fill:#f7a9a0"></path><path d="M115.15,473.82c-2.36-.31-59.71-28.41-61.23-30.89,0,0,0,0,0-.07a5.68,5.68,0,0,1,.48-2.52l0-.06c1.13-3.52,3.92-10.06,7.24-17.45,0,0,3.49-6.4,4.88-8.63l37.07,19.16L99.26,441s16.53,20.6,17.92,23.51S117.52,474.13,115.15,473.82Z" style="fill:#FFC727"></path><path d="M116.72,470.44c-9.66-5.28-49.14-25.68-59.09-30.17-.09,0-.11,0,0,.07,9.47,5.44,49.11,25.52,59.05,30.26C116.85,470.7,116.92,470.55,116.72,470.44Z" style="fill:#fff"></path><path d="M103.13,441.06c-3.48-2.7-8.5-4.53-12.86-3.31-.16.05-.09.29,0,.31a60.79,60.79,0,0,1,12.54,3.48A.28.28,0,0,0,103.13,441.06Z" style="fill:#263238"></path><path d="M105,444.17c-3.48-2.7-8.49-4.54-12.85-3.31-.17.05-.1.29,0,.31a61,61,0,0,1,12.54,3.48A.28.28,0,0,0,105,444.17Z" style="fill:#263238"></path><path d="M107,447.28c-3.48-2.7-8.5-4.54-12.85-3.31-.17,0-.1.29,0,.31a60.88,60.88,0,0,1,12.55,3.48A.28.28,0,0,0,107,447.28Z" style="fill:#263238"></path><path d="M68.94,431.26c-3.12-4.27-9.77.58-6.64,4.86S72.07,435.54,68.94,431.26Z" style="fill:#fff"></path><path d="M102.59,442.54l4.18,26.07c5.25,2.61,8.88,4.33,9.44,4.42,2.38.37,3.6-6.39,2.27-9.34C117.47,461.44,107.41,448.62,102.59,442.54Z" style="opacity:0.1"></path><path d="M118.18,471.4c.83.94-1.19,4.31-2.09,4.21s-64.06-33-65-33.8,1.43-4.45,2.79-4S118.18,471.4,118.18,471.4Z" style="fill:#263238"></path><path d="M65.12,414.11l41.76,22.3S160.9,358,162,338.22c1.46-27.26-21.81-113.8-21.81-113.8L103,224.17s15.09,89,13.87,104.18C116.23,336.29,65.12,414.11,65.12,414.11Z" style="fill:#263238"></path><path d="M110.52,427.78c-2.15-1.55-21.94-13-37-20.35-.1-.05-.17.1-.08.16,4.58,3,34.12,19.2,37,20.35C110.51,428,110.62,427.85,110.52,427.78Z" style="fill:#37474f"></path><path d="M122,309.33c-1.72-13-3.62-26-5.78-39s-4.47-26-7.19-38.94c-.33-1.58-.68-3.15-1-4.73a.19.19,0,0,0-.38.08c2.29,12.81,4.65,25.61,6.75,38.46s4.07,25.71,5.83,38.6c.44,3.19.86,6.39,1.27,9.58a85.23,85.23,0,0,1,1,10,25.33,25.33,0,0,1-1.59,9.32,54.2,54.2,0,0,1-4.28,8.38c-6.71,11.36-38.1,64.35-38.88,65.79,0,.1.08.2.14.1,7.22-11.2,30.92-50.31,37.73-61.85,3.07-5.21,6.59-10.49,7.6-16.56C124.21,322.21,122.86,315.6,122,309.33Z" style="fill:#37474f"></path><path d="M111.33,410.78s-.42,42.35-.42,42.38c.23,8.11.57,15.2,1.09,18.86a.13.13,0,0,0,0,.06,5.6,5.6,0,0,0,.66,2.48l0,.05c2.46,1.57,67.25,1.67,69.51.91s.29-7.26-2.23-9.27-27.31-13.14-27.31-13.14l0-42.33Z" style="fill:#f7a9a0"></path><path d="M111,444.47s-.09,8.66-.09,8.69c.23,8.11.57,15.2,1.09,18.86a.13.13,0,0,0,0,.06,11.07,11.07,0,0,0,.66,2.48l0,.05c2.46,1.57,67.25,1.67,69.51.91s.29-7.26-2.23-9.27-27.31-13.14-27.31-13.14v-8.83Z" style="fill:#FFC727"></path><path d="M181.57,472.9c-11-.47-55.43-1.3-66.34-.92-.09,0-.09.06,0,.07,10.9.69,55.33,1.17,66.34,1C181.8,473.07,181.8,472.91,181.57,472.9Z" style="fill:#fff"></path><path d="M156.39,452.56c-4.32-.88-9.63-.31-13,2.72-.13.11,0,.3.18.25a60.85,60.85,0,0,1,12.78-2.42A.28.28,0,0,0,156.39,452.56Z" style="fill:#263238"></path><path d="M159.48,454.5c-4.31-.88-9.62-.31-13,2.72-.13.11,0,.3.18.25a60.94,60.94,0,0,1,12.79-2.42A.28.28,0,0,0,159.48,454.5Z" style="fill:#263238"></path><path d="M162.58,456.44c-4.32-.89-9.63-.31-13,2.72-.13.11,0,.3.18.25A61.06,61.06,0,0,1,162.55,457,.28.28,0,0,0,162.58,456.44Z" style="fill:#263238"></path><path d="M183.3,473.12c1.17.47.84,4.39,0,4.69s-72.05-1.27-73.26-1.56-.68-4.63.73-4.83S183.3,473.12,183.3,473.12Z" style="fill:#263238"></path><path d="M121.39,458.89c-4.69-2.45-8.51,4.84-3.8,7.29S126.09,461.34,121.39,458.89Z" style="fill:#fff"></path><path d="M139.67,224.33l0,0c-.24.77-13.58,37.33-14.84,37.91-1.42.66,29.47,52.56,31.3,76.67,1.17,15.42-1.12,107.32-1.12,107.32H109.82S112,363.18,113,338.32c.4-9.64-31-57.64-31.4-87.52-.12-9.42,6.65-26.63,6.65-26.63Z" style="fill:#263238"></path><path d="M113.28,337.65c0-.4-.31-.53-.34-.12-1,13.45-1.26,26.83-1.91,40.31s-.27,16.67-.87,30.11c-.34,7.61,0,19.86-.2,27.47,0,.12.18.14.19,0C111.56,422,113.27,345.27,113.28,337.65Z" style="fill:#37474f"></path><path d="M156.11,339.48a67.12,67.12,0,0,0-.91-9.91,49.75,49.75,0,0,0-2.79-9.3c-2.5-6.29-5.45-12.42-8.27-18.58s-5.77-12.44-8.78-18.6q-2.54-5.19-5.11-10.37c-1.74-3.49-3.61-6.92-5.43-10.36a.12.12,0,1,0-.21.1c2.89,6.22,5.75,12.45,8.65,18.67s5.73,12.45,8.58,18.69,5.6,12.28,8.24,18.49a61.17,61.17,0,0,1,3.22,9.14,53.41,53.41,0,0,1,1.32,9.83c.44,7.72.65,15.46,1.41,23.15a.09.09,0,0,0,.17,0C156.43,353.46,156.32,346.44,156.11,339.48Z" style="fill:#37474f"></path><path d="M151.72,437.34c-2.63-.34-22.64-1-39.39-.32a.09.09,0,0,0,0,.17c5.45.49,36.29.7,39.36.34C151.8,437.52,151.84,437.35,151.72,437.34Z" style="fill:#37474f"></path><path d="M131.05,260.25a86.1,86.1,0,0,0-14.12,4.9.15.15,0,0,0,.1.29c4.74-1.49,9.56-2.88,14.21-4.62A.3.3,0,0,0,131.05,260.25Z" style="fill:#37474f"></path><path d="M135.61,229.29c0-.16-.27-.22-.29,0A150.83,150.83,0,0,1,133,244.33c-.45,2.32-3.66,15-7.62,13.69-.66-.22-.94-.93-.94-2a16.27,16.27,0,0,1,.94-3.91c.73-2.66,1.37-5.34,1.88-8.05a74.26,74.26,0,0,0,1.4-15.31.13.13,0,0,0-.26,0,140.25,140.25,0,0,1-3.4,21c-.85,3.31-3.06,8.2.4,9.08s6.72-7.35,7.39-9.62A78,78,0,0,0,135.61,229.29Z" style="fill:#37474f"></path><path d="M125.46,258.38a22.37,22.37,0,0,0-1.18,2.59,6.19,6.19,0,0,0-.61,2.16c0,.15.19.18.28.09a8,8,0,0,0,1.16-2c.39-.8.8-1.59,1.17-2.4A.46.46,0,0,0,125.46,258.38Z" style="fill:#37474f"></path><path d="M117.9,350.92c.24-6.42.95-13.15-1.16-19.35a63.35,63.35,0,0,0-4.12-8.79q-2.34-4.53-4.61-9.11c-6-12.19-11.72-24.57-16.8-37.19a79,79,0,0,1-5.51-18.84A58.18,58.18,0,0,1,87,237.15c.39-1.67.79-3.33,1.25-5,0-.12-.15-.19-.19-.07a67.48,67.48,0,0,0-3.52,19.6,55.19,55.19,0,0,0,3.4,18.72c2.16,6.31,4.88,12.44,7.55,18.54q4.13,9.44,8.58,18.73c3,6.16,6.1,12.22,9.22,18.29a33,33,0,0,1,3.47,9.23,47.48,47.48,0,0,1,.37,10.11c-.53,14.21-1.75,66.12-1.93,80.29,0,1.8,0,3.6-.07,5.4,0,.16.24.18.25,0C116.24,416.89,117.39,365.08,117.9,350.92Z" style="fill:#37474f"></path><path d="M107.77,233.54c0-.11-.16-.09-.17,0-.53,3.91-.83,8-2.72,11.52-1.73,3.25-4.76,5.35-8,6.82A57.9,57.9,0,0,1,91,254c-.14.05-.11.27,0,.24,3.74-.78,7.54-1.65,10.78-3.75,3.48-2.24,5.27-5.84,5.84-9.86A34,34,0,0,0,107.77,233.54Z" style="fill:#37474f"></path><path d="M86,227.19c.09.18,59.51,16.37,60.18,15.94.06,0,2.52-1.36,3-6,.14-1.26-1.55-6.69-1.59-10.71-.14-14.07.41-40.21-3.41-54.25-1-3.78-9.16-8.1-13.62-5.36C110.5,179.2,85.86,227,86,227.19Z" style="fill:#ebebeb"></path><path d="M133.57,165.75s-2.21,30-3,33.45c-.55,2.44-7.28,26.9-10.75,44.58-1.48,7.57-.79,19.49-.79,19.49s-20.69-6.72-27-11C88.33,249.74,80.15,239,80.15,239s13.1-29.1,20.52-40,21.65-29.8,28.29-32.56C132,165.15,133.57,165.75,133.57,165.75Z" style="fill:#455a64"></path><path d="M131.59,165.67v25.55h-.09c-.09.91-.17,1.76-.25,2.56V165.73Zm-9.94,6.6v62.84c.25-1.15.51-2.31.77-3.46,0-.12.06-.24.09-.35.41-1.77.83-3.55,1.25-5.3l1-4.29,1.14-4.57V168.31c-.73.58-1.52,1.26-2.33,2-.12.1-.25.22-.37.34C122.73,171.17,122.19,171.71,121.65,172.27ZM116,178.56v83.69l.35.12V178.15C116.23,178.29,116.12,178.43,116,178.56Zm-9.6,12.32v67.93c1.48.56,2.94,1.1,4.3,1.59V185.15c-.1.14-.21.29-.32.42l-.27.36C108.83,187.59,107.59,189.25,106.4,190.88Zm-5.64,8v57.74l.35.14V198.34C101,198.51,100.87,198.67,100.76,198.84Zm-6.93,11.92c-.89,1.68-1.78,3.42-2.67,5.16v35.67c.28.24.54.43.78.6l.07.05a32.33,32.33,0,0,0,3.46,2V207.72C94.92,208.7,94.38,209.73,93.83,210.76Zm-8.31,16.69v18.19l.35.42V226.72C85.75,227,85.63,227.21,85.52,227.45Zm-5.3,11.36a1,1,0,0,1-.07.16.3.3,0,0,1,.07.08Zm34.38,23,1.05.35H119c0-.11,0-.23,0-.35Zm-22.66-9.59.07.05a32.33,32.33,0,0,0,3.46,2c1.51.74,3.23,1.52,5.06,2.28h18.34c0-1.34,0-2.8.09-4.29Zm-5.66-5.65c.11.11.21.22.31.34h32.76c0-.11,0-.23,0-.34ZM80.15,239a.3.3,0,0,1,.07.08c.19.26.82,1.08,1.71,2.2h38.41c.28-1.41.58-2.85.9-4.31H81.08c-.44.94-.73,1.6-.86,1.87A1,1,0,0,1,80.15,239Zm3.38-7.32h38.89c0-.12.06-.24.09-.35H83.7ZM86.21,226h37.55l1-4.29H88.29C87.57,223.18,86.87,224.62,86.21,226Zm4.71-9.6h35.21l.09-.34H91.1Zm2.91-5.64h33.74l1.11-4.3H96.16l-.69,1.26C94.92,208.7,94.38,209.73,93.83,210.76Zm5.41-9.6h30.83c0-.12.06-.23.09-.34H99.47Zm3.82-5.64h28c.06-.54.12-1.12.19-1.74.08-.8.16-1.65.25-2.56H106.15C105.07,192.7,104,194.15,103.06,195.52Zm7-9.59H132l0-.36H110.38Zm4.47-5.65h17.86c.12-1.48.24-2.92.35-4.3H118.22c-.63.7-1.25,1.43-1.87,2.17-.12.14-.23.28-.35.41Zm9-9.94c-.12.1-.25.22-.37.34h8.35v-.34Z" style="fill:#030402;opacity:0.1"></path><path d="M139.92,181.13c-3.36-.8-6.18-9.61-6.35-14.35,0-.33,1.25-1.88,3.22-5,1.19-1.9,2.47-4,3.5-6.08l11.23,9.55a36.36,36.36,0,0,0-5.18,7.21,5.6,5.6,0,0,0-.33.88,1.31,1.31,0,0,0,0,.15C145.42,175.2,143.16,181.9,139.92,181.13Z" style="fill:#f7a9a0"></path><path d="M144.52,175.33c.22.13.45.23.67.34.36-.92.63-1.73.77-2.19a1.31,1.31,0,0,1,0-.15,5.6,5.6,0,0,1,.33-.88,36.36,36.36,0,0,1,5.18-7.21l-11.23-9.55c-.22.43-.44.85-.68,1.29C138.31,161.67,136.82,171.25,144.52,175.33Z" style="fill:#263238"></path><path d="M143.59,142.6c-3.27,4.18-6.05,18.83-3.85,23.19,3.18,6.3,11,9.81,17,5.39,5.84-4.29,9.12-23.45,6.42-27.68C159.23,137.28,148.43,136.42,143.59,142.6Z" style="fill:#f7a9a0"></path><path d="M153.74,156.52s-.09,0-.09.06c-.22,1-.64,2.07-1.6,2.17a0,0,0,0,0,0,.06C153.16,158.93,153.69,157.48,153.74,156.52Z" style="fill:#263238"></path><path d="M153.13,155.28c-1.53-.52-2.46,2.59-1,3.07S154.42,155.71,153.13,155.28Z" style="fill:#263238"></path><path d="M159.27,158.2s.07.07,0,.11c-.31.95-.51,2.1.26,2.68a0,0,0,0,1,0,0C158.54,160.58,158.82,159.06,159.27,158.2Z" style="fill:#263238"></path><path d="M160.43,157.45c1.59.34.79,3.49-.68,3.17S159.11,157.17,160.43,157.45Z" style="fill:#263238"></path><path d="M152.07,154.3a12,12,0,0,0,1.19.6,2.12,2.12,0,0,0,1.33.37.7.7,0,0,0,.52-.66,1.72,1.72,0,0,0-1.07-1.35,2.51,2.51,0,0,0-1.78-.28A.73.73,0,0,0,152.07,154.3Z" style="fill:#263238"></path><path d="M162.4,155.19c-.41-.2-.75-.45-1.14-.68s-.81-.44-1-.93a.69.69,0,0,1,.28-.79,1.71,1.71,0,0,1,1.71.18,2.47,2.47,0,0,1,1.19,1.35A.73.73,0,0,1,162.4,155.19Z" style="fill:#263238"></path><path d="M149.94,164.72c.16.29.3.67.64.8a2.77,2.77,0,0,0,1.11.07s.05,0,0,.06a1.37,1.37,0,0,1-1.38.16,1.08,1.08,0,0,1-.51-1.08C149.83,164.67,149.91,164.67,149.94,164.72Z" style="fill:#263238"></path><path d="M151.81,162.13a3.39,3.39,0,0,0,1.75,2.11,4.26,4.26,0,0,0,1.17.4.86.86,0,0,0,.23.05l.22,0a.26.26,0,0,0,.26-.16h0a.36.36,0,0,0,0-.1h0l0-.08c.24-.74.51-1.89.51-1.89.23.22,1.42,1.25,1.52.86A51.82,51.82,0,0,0,159.18,153a.09.09,0,0,0-.18,0c-.86,3.1-1.16,6.34-2,9.48a6,6,0,0,0-1.41-.93c-.11,0-.47,2.23-.6,2.55,0,0,0,0,0,0a4.72,4.72,0,0,1-3.08-2.06C151.87,162,151.77,162,151.81,162.13Z" style="fill:#263238"></path><path d="M139.34,154.05c3.48,1.5,6.83-2.11,7.2-5.82,0,0,9.05,4.58,12.17-2.88a9.16,9.16,0,0,0,5.34,5.87l-.29,2.9c1.07.06,3.08-2.35,1.46-5.35a9.66,9.66,0,0,0-.84-7.12,5.48,5.48,0,0,0-5.3-2.73,8.34,8.34,0,0,0-5.23-3.42,7.08,7.08,0,0,0-6.21,1.9s-5-.75-7,2.31a7.36,7.36,0,0,0-1,5.91s-1.64.89-2,3.95C137.32,151.54,138.29,153.59,139.34,154.05Z" style="fill:#263238"></path><path d="M158.74,144.6a9.79,9.79,0,0,1-.63,1.87,7.39,7.39,0,0,1-1,1.68,5.09,5.09,0,0,1-3.15,2,8.4,8.4,0,0,1-3.81-.35c-.61-.24-1.24-.43-1.84-.7s-1.18-.57-1.79-.84c.55.36,1.13.69,1.69,1.05s1.22.55,1.83.83a8.11,8.11,0,0,0,4,.46,5.29,5.29,0,0,0,3.36-2.21A8,8,0,0,0,158.74,144.6Z" style="fill:#263238"></path><path d="M162.09,150.72a10.32,10.32,0,0,1-2.34-2.56,6.13,6.13,0,0,1-.7-1.54,7.54,7.54,0,0,1-.29-1.73,4.25,4.25,0,0,0-.06,1.81,4.65,4.65,0,0,0,.66,1.71,5.61,5.61,0,0,0,1.19,1.38A5.51,5.51,0,0,0,162.09,150.72Z" style="fill:#263238"></path><path d="M142.24,155.35s-1.5-5.59-3.93-5.21-2.42,7.69-.37,9.44a2.57,2.57,0,0,0,3.71-.13Z" style="fill:#f7a9a0"></path><path d="M138.36,152.23s-.06,0,0,.06a6.5,6.5,0,0,1,1.77,5,1.41,1.41,0,0,0-1.86-1.09.06.06,0,0,0,0,.11,1.58,1.58,0,0,1,1.45,1.11A7.76,7.76,0,0,1,140,159c0,.17.32.19.33,0v0C141.14,156.85,140.57,153.27,138.36,152.23Z" style="fill:#263238"></path><path d="M122.48,179.32c-2.4,17.39-1,49.3,2.25,54.68,2.86,4.75,20.65,14.24,30.81,19.22,3.31,1.61,14.66-23.57,11-25.11-4.93-2.09-22.79-10.57-23.35-11.67s-5.41-24.56-9.83-37.77C129.39,166.69,123.38,172.74,122.48,179.32Z" style="fill:#f7a9a0"></path><path d="M169.69,228c7.7,1.62,9.43,3.22,16.66,1.14,4.74-1.37,7.65,1.07,3.94,4.62-6,5.81-16.43,5.81-20,4.77Z" style="fill:#f7a9a0"></path><path d="M246.75,267.24l-15.21-7.18L172,251a6.26,6.26,0,0,0-7.13,5.25l-13.5,89a6.28,6.28,0,0,0,5.26,7.14l73.66,11.17a6.27,6.27,0,0,0,7.14-5.26l12.81-84.45A6.28,6.28,0,0,0,246.75,267.24Z" style="fill:#FFC727"></path><path d="M246.75,267.24l-15.21-7.18L172,251a6.26,6.26,0,0,0-7.13,5.25l-13.5,89a6.28,6.28,0,0,0,5.26,7.14l73.66,11.17a6.27,6.27,0,0,0,7.14-5.26l12.81-84.45A6.28,6.28,0,0,0,246.75,267.24Z" style="fill:#fff;opacity:0.6000000000000001"></path><path d="M231.54,260.06l-11.88-1.8-4.43-11.35a1.76,1.76,0,0,0-1.39-1.1l-29.7-4.51a1.78,1.78,0,0,0-2,2l1.12,9.48-18.64,5.57,3.56-23.45a4.79,4.79,0,0,1,5.46-4l46.7,7.08a4.79,4.79,0,0,1,3.75,3Z" style="fill:#FFC727"></path><path d="M231.54,260.06l-11.88-1.8-4.43-11.35a1.76,1.76,0,0,0-1.39-1.1l-29.7-4.51a1.78,1.78,0,0,0-2,2l1.12,9.48-18.64,5.57,3.56-23.45a4.79,4.79,0,0,1,5.46-4l46.7,7.08a4.79,4.79,0,0,1,3.75,3Z" style="fill:#fff;opacity:0.6000000000000001"></path><rect x="235.83" y="251.19" width="18.76" height="6.7" transform="translate(132.05 -80.29) rotate(25.26)" style="fill:#FFC727"></rect><rect x="235.83" y="251.19" width="18.76" height="6.7" transform="translate(132.05 -80.29) rotate(25.26)" style="opacity:0.30000000000000004"></rect><rect x="234.87" y="257.18" width="14.52" height="7.49" transform="translate(134.48 -78.37) rotate(25.26)" style="fill:#FFC727"></rect><rect x="234.87" y="257.18" width="14.52" height="7.49" transform="translate(134.48 -78.37) rotate(25.26)" style="opacity:0.30000000000000004"></rect><polygon points="249.5 262.33 235.99 256.93 237.16 254.44 250.3 260.64 249.5 262.33" style="opacity:0.1"></polygon><g style="opacity:0.4"><path d="M170.11,328.29a1.48,1.48,0,0,0-.31,2.09,1.51,1.51,0,0,0,1,.6,1.56,1.56,0,0,0,1.11-.28l12.56-9.25,28.48,4.32,9.26,12.56a1.5,1.5,0,0,0,2.09.32,1.5,1.5,0,0,0,.32-2.1l-9.31-12.64,4.29-28.29,12.64-9.31a1.5,1.5,0,1,0-1.78-2.41l-12.67,9.34L189.48,289l-9.33-12.68a1.5,1.5,0,0,0-2.42,1.78l9.33,12.66L182.77,319Z" style="fill:#FFC727"></path></g><path d="M147.67,228s9.89-1.61,18.27-.7c5.79.64,18.24,3.42,25.4,19.27,1.7,3.76,1.45,10.32-3.55,5.19-3.56-3.65-4.71-7-7.16-8.78,0,0-1.31,8.31-5.14,9.86a74.29,74.29,0,0,1-10.3,3.35,15.06,15.06,0,0,1-.8-1.87s-3.72,1.11-9.06-1.4Z" style="fill:#f7a9a0"></path><path d="M171.37,228.83c2.07,2.25,6.38,7.08,8.52,12.26,2.39,5.76,5.43,17.48,1.17,19.2-3.13,1.26-4.69-3.12-4.69-3.12s.24,5.11-2.84,5.63c-2.8.48-3.8-3-3.8-3s-.39,3.12-3.17,3.06c-3.35-.08-2-6.61-5.31-9.63C160.5,252.58,171.37,228.83,171.37,228.83Z" style="fill:#f7a9a0"></path><path d="M173.39,242.6a24.76,24.76,0,0,1,3.06,14.47c0,.13-.12.18-.13.06a61.07,61.07,0,0,0-3-14.51S173.38,242.57,173.39,242.6Z" style="fill:#263238"></path><path d="M167.66,245.17c1.16,2.24,3.15,9,2.19,14.63,0,.13-.13.18-.14.06a65.24,65.24,0,0,0-2.11-14.67S167.64,245.14,167.66,245.17Z" style="fill:#263238"></path><path d="M123.24,232.39c4.12,9,29.37,21.47,29.37,21.47l10.15-29s-18.73-8-19.22-9c-1-2.18-5.5-28.22-10.84-40.17-4.5-10-9.95-4.6-11.26,6.38C119.85,195.29,121.79,229.2,123.24,232.39Z" style="fill:#455a64"></path><path d="M162.07,224.58v2.24l-.35,1v-3.4Zm-9.94-4.37v33.4l.48.24.59-1.66,1.85-5.31.12-.34,1.26-3.58V222.13l-1-.42Zm-5.65-2.64v33l.35.19V217.74Zm-9.6-29.52v56.81c.88.58,1.77,1.14,2.64,1.68l.56.34,1.11.67V205.82c-.33-1.46-.67-3-1.05-4.66,0-.11,0-.22-.07-.34-.4-1.72-.81-3.49-1.25-5.3-.35-1.43-.71-2.87-1.08-4.3C137.46,190.15,137.18,189.09,136.88,188.05Zm-5.63-15v67.86c.11.09.22.18.34.26V173.55C131.48,173.36,131.37,173.19,131.25,173Zm-9.6,7.26v41.43h.19c.12,1.56.25,3,.38,4.29.23,2.32.47,4.16.71,5.3,0,.13,0,.24.08.35a5.38,5.38,0,0,0,.23.75,14.85,14.85,0,0,0,2.7,3.78V170.94c-1.24.84-2.34,2.6-3.18,5a26.74,26.74,0,0,0-1.07,4.3Zm27.75,71.91,2.73,1.42.48.24.59-1.66Zm-9.88-5.65.56.34h15l.12-.34Zm-12.84-9.6a46.27,46.27,0,0,0,4.57,3.94c.11.09.22.18.34.26l.13.11H157l1.5-4.31Zm-3.75-5.64c0,.13,0,.24.08.35h37.37l.12-.35Zm-1.09-9.59c.12,1.56.25,3,.38,4.29h40.14l.39-1.13-.68-.29-.35-.15-5.29-2.3-1-.42Zm-.38-5.65c0,.11,0,.23,0,.34h22.8c-.22-.13-.39-.25-.52-.34Zm-.44-9.6c0,1.45.1,2.89.16,4.3h21.09c-.28-1.27-.6-2.71-.94-4.3Zm-.14-5.64v.34h19.26c0-.11,0-.22-.07-.34Zm0-5.3h18c-.35-1.43-.71-2.87-1.08-4.3H120.89C120.85,192.6,120.84,194,120.84,195.52Zm.26-9.59h15.19c0-.11-.08-.24-.11-.36H121.11C121.11,185.69,121.1,185.81,121.1,185.93Zm.59-5.65h12.8c-.54-1.56-1.1-3-1.67-4.3H122.76A26.74,26.74,0,0,0,121.69,180.28Zm4.7-9.6h2.43A2.67,2.67,0,0,0,126.39,170.68Z" style="fill:#030402;opacity:0.1"></path><path d="M155.8,224.77c-1,1.87-3.87,9.91-4.58,11.95S148,247,147.42,249.05c0,.09.15.13.18,0,.79-2,8-22.21,8.3-24.29C155.91,224.76,155.82,224.72,155.8,224.77Z" style="fill:#263238"></path><path d="M120.84,187.07c.89,14.2.66,29.15,1.91,43.3-1.36-7.11-1.44-14.39-1.8-21.61-.19-7.23-.31-14.46-.11-21.69Z" style="fill:#263238"></path><path d="M119.69,189.22a34.9,34.9,0,0,1,1.15,4.93,7.83,7.83,0,0,1-1.15-4.93Z" style="fill:#263238"></path></g></svg>
